# xmcd
#
# Track frame offsets:
#	150
#	11659
#	22385
#	35490
#	47347
#	56850
#	69315
#	80120
#	89457
#	100220
#	108380
#	120245
#	129765
#	141195
#	152017
#	160440
#
# Disc length: 2324 seconds
#
# Revision: 2
# Processed by: cddbd v1.5.2PL0 Copyright (c) Steve Scherf et al.
# Submitted via: EasyCDDAExtractor 11.1.0.1
#
DISCID=d3091210
DTITLE=Various Artist - House Rockin' and Hip Shakin', Volume 2: Louisiana Hood
DTITLE=oo Party
DYEAR=1998
DGENRE=Blues
TTITLE0=Tabby Thomas - Hoodoo Party
TTITLE1=Silas Hogan - Just Give Me A Chance
TTITLE2=Slim Harpo - Baby, Scratch My Back
TTITLE3=Earl Gaines And His Hi-Toppers - It's Love Pretty Baby
TTITLE4=Lightnin' Slim - You Know You're So Fine
TTITLE5=The Leap Frogs - Dirty Britches
TTITLE6=Arthur Gunter - She's Mine, All Mine
TTITLE7=Little Al - Little Lean Woman
TTITLE8=Guitar Gable - Congo Mombo
TTITLE9=Charles Sheffield - It's Your Voo Doo Working
TTITLE10=Kid King's Combo with Good Rockin' Sam Beasley - Now Listen Baby
TTITLE11=Whispering Smith - Live Jive
TTITLE12=Jimmy Anderson - Goin' Crazy Over TV
TTITLE13=Lonesome Sundown - I'm A Mojo Man
TTITLE14=Lazy Lester - Lester's Stomp
TTITLE15=Slim Harpo - Blues Hangover
EXTD=
EXTT0=
EXTT1=
EXTT2=
EXTT3=
EXTT4=
EXTT5=
EXTT6=
EXTT7=
EXTT8=
EXTT9=
EXTT10=
EXTT11=
EXTT12=
EXTT13=
EXTT14=
EXTT15=
PLAYORDER=
